{
  "header": {
    "keySignatures": [
      {
        "key": "Eb",
        "scale": "major",
        "ticks": 0
      }
    ],
    "meta": [],
    "name": "",
    "ppq": 1024,
    "tempos": [
      {
        "bpm": 96,
        "ticks": 0
      }
    ],
    "timeSignatures": [
      {
        "ticks": 0,
        "timeSignature": [
          4,
          4
        ],
        "measures": 0
      }
    ]
  },
  "tracks": [
    {
      "channel": 0,
      "controlChanges": {
        "0": [
          {
            "number": 0,
            "ticks": 0,
            "time": 0,
            "value": 0
          },
          {
            "number": 0,
            "ticks": 0,
            "time": 0,
            "value": 0
          }
        ],
        "32": [
          {
            "number": 32,
            "ticks": 0,
            "time": 0,
            "value": 0.007874015748031496
          },
          {
            "number": 32,
            "ticks": 0,
            "time": 0,
            "value": 0.007874015748031496
          }
        ]
      },
      "pitchBends": [],
      "instrument": {
        "family": "piano",
        "number": 0,
        "name": "acoustic grand piano"
      },
      "name": "Acoustic Grand Piano",
      "notes": [
        {
          "duration": 0.28076171875,
          "durationTicks": 460,
          "midi": 72,
          "name": "C5",
          "ticks": 3072,
          "time": 1.875,
          "velocity": 0.7874015748031497
        },
        {
          "duration": 0.28076171875,
          "durationTicks": 460,
          "midi": 74,
          "name": "D5",
          "ticks": 3584,
          "time": 2.1875,
          "velocity": 0.7874015748031497
        },
        {
          "duration": 0.843505859375,
          "durationTicks": 1382,
          "midi": 75,
          "name": "D#5",
          "ticks": 4096,
          "time": 2.5,
          "velocity": 0.7874015748031497
        },
        {
          "duration": 0.28076171875,
          "durationTicks": 460,
          "midi": 74,
          "name": "D5",
          "ticks": 5632,
          "time": 3.4375,
          "velocity": 0.7874015748031497
        },
        {
          "duration": 0.5621337890625,
          "durationTicks": 921,
          "midi": 75,
          "name": "D#5",
          "ticks": 6144,
          "time": 3.75,
          "velocity": 0.7874015748031497
        },
        {
          "duration": 0.5621337890625,
          "durationTicks": 921,
          "midi": 79,
          "name": "G5",
          "ticks": 7168,
          "time": 4.375,
          "velocity": 0.7874015748031497
        },
        {
          "duration": 1.68701171875,
          "durationTicks": 2764,
          "midi": 74,
          "name": "D5",
          "ticks": 8192,
          "time": 5,
          "velocity": 0.7874015748031497
        },
        {
          "duration": 0.5621337890625,
          "durationTicks": 921,
          "midi": 67,
          "name": "G4",
          "ticks": 11264,
          "time": 6.875,
          "velocity": 0.7874015748031497
        },
        {
          "duration": 0.843505859375,
          "durationTicks": 1382,
          "midi": 72,
          "name": "C5",
          "ticks": 12288,
          "time": 7.5,
          "velocity": 0.7874015748031497
        },
        {
          "duration": 0.28076171875,
          "durationTicks": 460,
          "midi": 70,
          "name": "A#4",
          "ticks": 13824,
          "time": 8.4375,
          "velocity": 0.7874015748031497
        },
        {
          "duration": 0.5621337890625,
          "durationTicks": 921,
          "midi": 72,
          "name": "C5",
          "ticks": 14336,
          "time": 8.75,
          "velocity": 0.7874015748031497
        },
        {
          "duration": 0.5621337890625,
          "durationTicks": 921,
          "midi": 75,
          "name": "D#5",
          "ticks": 15360,
          "time": 9.375,
          "velocity": 0.7874015748031497
        },
        {
          "duration": 1.68701171875,
          "durationTicks": 2764,
          "midi": 70,
          "name": "A#4",
          "ticks": 16384,
          "time": 10,
          "velocity": 0.7874015748031497
        },
        {
          "duration": 0.5621337890625,
          "durationTicks": 921,
          "midi": 67,
          "name": "G4",
          "ticks": 19456,
          "time": 11.875,
          "velocity": 0.7874015748031497
        },
        {
          "duration": 0.843505859375,
          "durationTicks": 1382,
          "midi": 68,
          "name": "G#4",
          "ticks": 20480,
          "time": 12.5,
          "velocity": 0.7874015748031497
        },
        {
          "duration": 0.28076171875,
          "durationTicks": 460,
          "midi": 67,
          "name": "G4",
          "ticks": 22016,
          "time": 13.4375,
          "velocity": 0.7874015748031497
        },
        {
          "duration": 0.28076171875,
          "durationTicks": 460,
          "midi": 68,
          "name": "G#4",
          "ticks": 22528,
          "time": 13.75,
          "velocity": 0.7874015748031497
        },
        {
          "duration": 0.8746337890625,
          "durationTicks": 1433,
          "midi": 75,
          "name": "D#5",
          "ticks": 23040,
          "time": 14.0625,
          "velocity": 0.7874015748031497
        },
        {
          "duration": 1.875,
          "durationTicks": 3072,
          "midi": 67,
          "name": "G4",
          "ticks": 24576,
          "time": 15,
          "velocity": 0.7874015748031497
        },
        {
          "duration": 0.625,
          "durationTicks": 1024,
          "midi": 75,
          "name": "D#5",
          "ticks": 27648,
          "time": 16.875,
          "velocity": 0.7874015748031497
        },
        {
          "duration": 0.9375,
          "durationTicks": 1536,
          "midi": 74,
          "name": "D5",
          "ticks": 28672,
          "time": 17.5,
          "velocity": 0.7874015748031497
        },
        {
          "duration": 0.3125,
          "durationTicks": 512,
          "midi": 69,
          "name": "A4",
          "ticks": 30208,
          "time": 18.4375,
          "velocity": 0.7874015748031497
        },
        {
          "duration": 0.625,
          "durationTicks": 1024,
          "midi": 69,
          "name": "A4",
          "ticks": 30720,
          "time": 18.75,
          "velocity": 0.7874015748031497
        },
        {
          "duration": 0.625,
          "durationTicks": 1024,
          "midi": 74,
          "name": "D5",
          "ticks": 31744,
          "time": 19.375,
          "velocity": 0.7874015748031497
        },
        {
          "duration": 1.25,
          "durationTicks": 2048,
          "midi": 74,
          "name": "D5",
          "ticks": 32768,
          "time": 20,
          "velocity": 0.7874015748031497
        },
        {
          "duration": 0.3125,
          "durationTicks": 512,
          "midi": 72,
          "name": "C5",
          "ticks": 35840,
          "time": 21.875,
          "velocity": 0.7874015748031497
        },
        {
          "duration": 0.3125,
          "durationTicks": 512,
          "midi": 74,
          "name": "D5",
          "ticks": 36352,
          "time": 22.1875,
          "velocity": 0.7874015748031497
        },
        {
          "duration": 0.9375,
          "durationTicks": 1536,
          "midi": 75,
          "name": "D#5",
          "ticks": 36864,
          "time": 22.5,
          "velocity": 0.7874015748031497
        },
        {
          "duration": 0.3125,
          "durationTicks": 512,
          "midi": 74,
          "name": "D5",
          "ticks": 38400,
          "time": 23.4375,
          "velocity": 0.7874015748031497
        },
        {
          "duration": 0.625,
          "durationTicks": 1024,
          "midi": 75,
          "name": "D#5",
          "ticks": 38912,
          "time": 23.75,
          "velocity": 0.7874015748031497
        },
        {
          "duration": 0.625,
          "durationTicks": 1024,
          "midi": 79,
          "name": "G5",
          "ticks": 39936,
          "time": 24.375,
          "velocity": 0.7874015748031497
        },
        {
          "duration": 1.875,
          "durationTicks": 3072,
          "midi": 74,
          "name": "D5",
          "ticks": 40960,
          "time": 25,
          "velocity": 0.7874015748031497
        },
        {
          "duration": 0.625,
          "durationTicks": 1024,
          "midi": 67,
          "name": "G4",
          "ticks": 44032,
          "time": 26.875,
          "velocity": 0.5039370078740157
        },
        {
          "duration": 0.843505859375,
          "durationTicks": 1382,
          "midi": 72,
          "name": "C5",
          "ticks": 45056,
          "time": 27.5,
          "velocity": 0.7874015748031497
        },
        {
          "duration": 0.28076171875,
          "durationTicks": 460,
          "midi": 70,
          "name": "A#4",
          "ticks": 46592,
          "time": 28.4375,
          "velocity": 0.7874015748031497
        },
        {
          "duration": 0.5621337890625,
          "durationTicks": 921,
          "midi": 72,
          "name": "C5",
          "ticks": 47104,
          "time": 28.75,
          "velocity": 0.7874015748031497
        },
        {
          "duration": 0.5621337890625,
          "durationTicks": 921,
          "midi": 75,
          "name": "D#5",
          "ticks": 48128,
          "time": 29.375,
          "velocity": 0.7874015748031497
        },
        {
          "duration": 1.68701171875,
          "durationTicks": 2764,
          "midi": 70,
          "name": "A#4",
          "ticks": 49152,
          "time": 30,
          "velocity": 0.7874015748031497
        },
        {
          "duration": 0.5621337890625,
          "durationTicks": 921,
          "midi": 67,
          "name": "G4",
          "ticks": 52224,
          "time": 31.875,
          "velocity": 0.7874015748031497
        },
        {
          "duration": 0.5621337890625,
          "durationTicks": 921,
          "midi": 68,
          "name": "G#4",
          "ticks": 53248,
          "time": 32.5,
          "velocity": 0.7874015748031497
        },
        {
          "duration": 0.28076171875,
          "durationTicks": 460,
          "midi": 75,
          "name": "D#5",
          "ticks": 54272,
          "time": 33.125,
          "velocity": 0.7874015748031497
        },
        {
          "duration": 0.8746337890625,
          "durationTicks": 1433,
          "midi": 74,
          "name": "D5",
          "ticks": 54784,
          "time": 33.4375,
          "velocity": 0.7874015748031497
        },
        {
          "duration": 0.5621337890625,
          "durationTicks": 921,
          "midi": 75,
          "name": "D#5",
          "ticks": 56320,
          "time": 34.375,
          "velocity": 0.7874015748031497
        },
        {
          "duration": 0.625,
          "durationTicks": 1024,
          "midi": 77,
          "name": "F5",
          "ticks": 57344,
          "time": 35,
          "velocity": 0.7874015748031497
        },
        {
          "duration": 0.3125,
          "durationTicks": 512,
          "midi": 79,
          "name": "G5",
          "ticks": 58368,
          "time": 35.625,
          "velocity": 0.7874015748031497
        },
        {
          "duration": 1.5625,
          "durationTicks": 2560,
          "midi": 75,
          "name": "D#5",
          "ticks": 58880,
          "time": 35.9375,
          "velocity": 0.7874015748031497
        },
        {
          "duration": 0.3125,
          "durationTicks": 512,
          "midi": 75,
          "name": "D#5",
          "ticks": 61440,
          "time": 37.5,
          "velocity": 0.7874015748031497
        },
        {
          "duration": 0.3125,
          "durationTicks": 512,
          "midi": 74,
          "name": "D5",
          "ticks": 61952,
          "time": 37.8125,
          "velocity": 0.7874015748031497
        },
        {
          "duration": 0.625,
          "durationTicks": 1024,
          "midi": 72,
          "name": "C5",
          "ticks": 62464,
          "time": 38.125,
          "velocity": 0.7874015748031497
        },
        {
          "duration": 0.625,
          "durationTicks": 1024,
          "midi": 74,
          "name": "D5",
          "ticks": 63488,
          "time": 38.75,
          "velocity": 0.7874015748031497
        },
        {
          "duration": 0.625,
          "durationTicks": 1024,
          "midi": 71,
          "name": "B4",
          "ticks": 64512,
          "time": 39.375,
          "velocity": 0.7874015748031497
        },
        {
          "duration": 1.25,
          "durationTicks": 2048,
          "midi": 72,
          "name": "C5",
          "ticks": 65536,
          "time": 40,
          "velocity": 0.7874015748031497
        },
        {
          "duration": 0.3125,
          "durationTicks": 512,
          "midi": 75,
          "name": "D#5",
          "ticks": 68608,
          "time": 41.875,
          "velocity": 0.7874015748031497
        },
        {
          "duration": 0.3125,
          "durationTicks": 512,
          "midi": 77,
          "name": "F5",
          "ticks": 69120,
          "time": 42.1875,
          "velocity": 0.7874015748031497
        },
        {
          "duration": 0.9375,
          "durationTicks": 1536,
          "midi": 79,
          "name": "G5",
          "ticks": 69632,
          "time": 42.5,
          "velocity": 0.7874015748031497
        },
        {
          "duration": 0.3125,
          "durationTicks": 512,
          "midi": 77,
          "name": "F5",
          "ticks": 71168,
          "time": 43.4375,
          "velocity": 0.7874015748031497
        },
        {
          "duration": 0.4168701171875,
          "durationTicks": 683,
          "midi": 79,
          "name": "G5",
          "ticks": 71680,
          "time": 43.75,
          "velocity": 0.7874015748031497
        },
        {
          "duration": 0.416259765625,
          "durationTicks": 682,
          "midi": 80,
          "name": "G#5",
          "ticks": 72363,
          "time": 44.1668701171875,
          "velocity": 0.7874015748031497
        },
        {
          "duration": 0.4168701171875,
          "durationTicks": 683,
          "midi": 82,
          "name": "A#5",
          "ticks": 73045,
          "time": 44.5831298828125,
          "velocity": 0.7874015748031497
        },
        {
          "duration": 1.875,
          "durationTicks": 3072,
          "midi": 77,
          "name": "F5",
          "ticks": 73728,
          "time": 45,
          "velocity": 0.7874015748031497
        },
        {
          "duration": 0.625,
          "durationTicks": 1024,
          "midi": 70,
          "name": "A#4",
          "ticks": 76800,
          "time": 46.875,
          "velocity": 0.7874015748031497
        },
        {
          "duration": 1.5625,
          "durationTicks": 2560,
          "midi": 75,
          "name": "D#5",
          "ticks": 77824,
          "time": 47.5,
          "velocity": 0.7874015748031497
        },
        {
          "duration": 0.625,
          "durationTicks": 1024,
          "midi": 77,
          "name": "F5",
          "ticks": 80384,
          "time": 49.0625,
          "velocity": 0.7874015748031497
        },
        {
          "duration": 0.3125,
          "durationTicks": 512,
          "midi": 79,
          "name": "G5",
          "ticks": 81408,
          "time": 49.6875,
          "velocity": 0.7874015748031497
        },
        {
          "duration": 2.5,
          "durationTicks": 4096,
          "midi": 79,
          "name": "G5",
          "ticks": 81920,
          "time": 50,
          "velocity": 0.7874015748031497
        },
        {
          "duration": 0.3125,
          "durationTicks": 512,
          "midi": 72,
          "name": "C5",
          "ticks": 86016,
          "time": 52.5,
          "velocity": 0.7874015748031497
        },
        {
          "duration": 0.3125,
          "durationTicks": 512,
          "midi": 74,
          "name": "D5",
          "ticks": 86528,
          "time": 52.8125,
          "velocity": 0.7874015748031497
        },
        {
          "duration": 0.625,
          "durationTicks": 1024,
          "midi": 75,
          "name": "D#5",
          "ticks": 87040,
          "time": 53.125,
          "velocity": 0.7874015748031497
        },
        {
          "duration": 0.3125,
          "durationTicks": 512,
          "midi": 74,
          "name": "D5",
          "ticks": 88064,
          "time": 53.75,
          "velocity": 0.7874015748031497
        },
        {
          "duration": 0.3125,
          "durationTicks": 512,
          "midi": 75,
          "name": "D#5",
          "ticks": 88576,
          "time": 54.0625,
          "velocity": 0.7874015748031497
        },
        {
          "duration": 0.625,
          "durationTicks": 1024,
          "midi": 77,
          "name": "F5",
          "ticks": 89088,
          "time": 54.375,
          "velocity": 0.7874015748031497
        },
        {
          "duration": 0.9375,
          "durationTicks": 1536,
          "midi": 75,
          "name": "D#5",
          "ticks": 90112,
          "time": 55,
          "velocity": 0.7874015748031497
        },
        {
          "duration": 0.3125,
          "durationTicks": 512,
          "midi": 70,
          "name": "A#4",
          "ticks": 91648,
          "time": 55.9375,
          "velocity": 0.7874015748031497
        },
        {
          "duration": 1.25,
          "durationTicks": 2048,
          "midi": 70,
          "name": "A#4",
          "ticks": 92160,
          "time": 56.25,
          "velocity": 0.7874015748031497
        },
        {
          "duration": 0.625,
          "durationTicks": 1024,
          "midi": 80,
          "name": "G#5",
          "ticks": 94208,
          "time": 57.5,
          "velocity": 0.7874015748031497
        },
        {
          "duration": 0.625,
          "durationTicks": 1024,
          "midi": 79,
          "name": "G5",
          "ticks": 95232,
          "time": 58.125,
          "velocity": 0.7874015748031497
        },
        {
          "duration": 0.625,
          "durationTicks": 1024,
          "midi": 77,
          "name": "F5",
          "ticks": 96256,
          "time": 58.75,
          "velocity": 0.7874015748031497
        },
        {
          "duration": 0.625,
          "durationTicks": 1024,
          "midi": 75,
          "name": "D#5",
          "ticks": 97280,
          "time": 59.375,
          "velocity": 0.7874015748031497
        },
        {
          "duration": 0.625,
          "durationTicks": 1024,
          "midi": 79,
          "name": "G5",
          "ticks": 98304,
          "time": 60,
          "velocity": 0.7874015748031497
        },
        {
          "duration": 0.625,
          "durationTicks": 1024,
          "midi": 70,
          "name": "A#4",
          "ticks": 99328,
          "time": 60.625,
          "velocity": 0.7874015748031497
        },
        {
          "duration": 0.625,
          "durationTicks": 1024,
          "midi": 82,
          "name": "A#5",
          "ticks": 100352,
          "time": 61.25,
          "velocity": 0.7874015748031497
        },
        {
          "duration": 0.625,
          "durationTicks": 1024,
          "midi": 80,
          "name": "G#5",
          "ticks": 101376,
          "time": 61.875,
          "velocity": 0.7874015748031497
        },
        {
          "duration": 1.5625,
          "durationTicks": 2560,
          "midi": 79,
          "name": "G5",
          "ticks": 102400,
          "time": 62.5,
          "velocity": 0.7874015748031497
        },
        {
          "duration": 0.3125,
          "durationTicks": 512,
          "midi": 77,
          "name": "F5",
          "ticks": 104960,
          "time": 64.0625,
          "velocity": 0.7874015748031497
        },
        {
          "duration": 0.3125,
          "durationTicks": 512,
          "midi": 71,
          "name": "B4",
          "ticks": 105472,
          "time": 64.375,
          "velocity": 0.7874015748031497
        },
        {
          "duration": 0.3125,
          "durationTicks": 512,
          "midi": 72,
          "name": "C5",
          "ticks": 105984,
          "time": 64.6875,
          "velocity": 0.7874015748031497
        },
        {
          "duration": 1.25,
          "durationTicks": 2048,
          "midi": 74,
          "name": "D5",
          "ticks": 106496,
          "time": 65,
          "velocity": 0.7874015748031497
        },
        {
          "duration": 0.3125,
          "durationTicks": 512,
          "midi": 72,
          "name": "C5",
          "ticks": 109568,
          "time": 66.875,
          "velocity": 0.7874015748031497
        },
        {
          "duration": 0.3125,
          "durationTicks": 512,
          "midi": 74,
          "name": "D5",
          "ticks": 110080,
          "time": 67.1875,
          "velocity": 0.7874015748031497
        },
        {
          "duration": 0.843505859375,
          "durationTicks": 1382,
          "midi": 75,
          "name": "D#5",
          "ticks": 110592,
          "time": 67.5,
          "velocity": 0.7874015748031497
        },
        {
          "duration": 0.28076171875,
          "durationTicks": 460,
          "midi": 74,
          "name": "D5",
          "ticks": 112128,
          "time": 68.4375,
          "velocity": 0.7874015748031497
        },
        {
          "duration": 0.5621337890625,
          "durationTicks": 921,
          "midi": 75,
          "name": "D#5",
          "ticks": 112640,
          "time": 68.75,
          "velocity": 0.7874015748031497
        },
        {
          "duration": 0.5621337890625,
          "durationTicks": 921,
          "midi": 79,
          "name": "G5",
          "ticks": 113664,
          "time": 69.375,
          "velocity": 0.7874015748031497
        },
        {
          "duration": 0.5621337890625,
          "durationTicks": 921,
          "midi": 74,
          "name": "D5",
          "ticks": 114688,
          "time": 70,
          "velocity": 0.7874015748031497
        },
        {
          "duration": 1.1248779296875,
          "durationTicks": 1843,
          "midi": 67,
          "name": "G4",
          "ticks": 115712,
          "time": 70.625,
          "velocity": 0.7874015748031497
        },
        {
          "duration": 0.5621337890625,
          "durationTicks": 921,
          "midi": 67,
          "name": "G4",
          "ticks": 117760,
          "time": 71.875,
          "velocity": 0.7874015748031497
        },
        {
          "duration": 0.843505859375,
          "durationTicks": 1382,
          "midi": 72,
          "name": "C5",
          "ticks": 118784,
          "time": 72.5,
          "velocity": 0.7874015748031497
        },
        {
          "duration": 0.28076171875,
          "durationTicks": 460,
          "midi": 70,
          "name": "A#4",
          "ticks": 120320,
          "time": 73.4375,
          "velocity": 0.7874015748031497
        },
        {
          "duration": 0.5621337890625,
          "durationTicks": 921,
          "midi": 72,
          "name": "C5",
          "ticks": 120832,
          "time": 73.75,
          "velocity": 0.7874015748031497
        },
        {
          "duration": 0.5621337890625,
          "durationTicks": 921,
          "midi": 75,
          "name": "D#5",
          "ticks": 121856,
          "time": 74.375,
          "velocity": 0.7874015748031497
        },
        {
          "duration": 1.68701171875,
          "durationTicks": 2764,
          "midi": 70,
          "name": "A#4",
          "ticks": 122880,
          "time": 75,
          "velocity": 0.7874015748031497
        },
        {
          "duration": 0.5621337890625,
          "durationTicks": 921,
          "midi": 67,
          "name": "G4",
          "ticks": 125952,
          "time": 76.875,
          "velocity": 0.7874015748031497
        },
        {
          "duration": 0.5621337890625,
          "durationTicks": 921,
          "midi": 68,
          "name": "G#4",
          "ticks": 126976,
          "time": 77.5,
          "velocity": 0.7874015748031497
        },
        {
          "duration": 0.28076171875,
          "durationTicks": 460,
          "midi": 75,
          "name": "D#5",
          "ticks": 128000,
          "time": 78.125,
          "velocity": 0.7874015748031497
        },
        {
          "duration": 0.8746337890625,
          "durationTicks": 1433,
          "midi": 74,
          "name": "D5",
          "ticks": 128512,
          "time": 78.4375,
          "velocity": 0.7874015748031497
        },
        {
          "duration": 0.5621337890625,
          "durationTicks": 921,
          "midi": 75,
          "name": "D#5",
          "ticks": 130048,
          "time": 79.375,
          "velocity": 0.7874015748031497
        },
        {
          "duration": 0.625,
          "durationTicks": 1024,
          "midi": 77,
          "name": "F5",
          "ticks": 131072,
          "time": 80,
          "velocity": 0.7874015748031497
        },
        {
          "duration": 0.3125,
          "durationTicks": 512,
          "midi": 79,
          "name": "G5",
          "ticks": 132096,
          "time": 80.625,
          "velocity": 0.7874015748031497
        },
        {
          "duration": 1.5625,
          "durationTicks": 2560,
          "midi": 75,
          "name": "D#5",
          "ticks": 132608,
          "time": 80.9375,
          "velocity": 0.7874015748031497
        },
        {
          "duration": 0.3125,
          "durationTicks": 512,
          "midi": 75,
          "name": "D#5",
          "ticks": 135168,
          "time": 82.5,
          "velocity": 0.7874015748031497
        },
        {
          "duration": 0.3125,
          "durationTicks": 512,
          "midi": 74,
          "name": "D5",
          "ticks": 135680,
          "time": 82.8125,
          "velocity": 0.7874015748031497
        },
        {
          "duration": 0.625,
          "durationTicks": 1024,
          "midi": 72,
          "name": "C5",
          "ticks": 136192,
          "time": 83.125,
          "velocity": 0.7874015748031497
        },
        {
          "duration": 0.625,
          "durationTicks": 1024,
          "midi": 74,
          "name": "D5",
          "ticks": 137216,
          "time": 83.75,
          "velocity": 0.7874015748031497
        },
        {
          "duration": 0.625,
          "durationTicks": 1024,
          "midi": 71,
          "name": "B4",
          "ticks": 138240,
          "time": 84.375,
          "velocity": 0.7874015748031497
        },
        {
          "duration": 2.5,
          "durationTicks": 4096,
          "midi": 72,
          "name": "C5",
          "ticks": 139264,
          "time": 85,
          "velocity": 0.7874015748031497
        },
        {
          "duration": 3.125,
          "durationTicks": 5120,
          "midi": 84,
          "name": "C6",
          "ticks": 143360,
          "time": 87.5,
          "velocity": 0.7874015748031497
        },
        {
          "duration": 0.625,
          "durationTicks": 1024,
          "midi": 84,
          "name": "C6",
          "ticks": 148480,
          "time": 90.625,
          "velocity": 0.7874015748031497
        },
        {
          "duration": 0.625,
          "durationTicks": 1024,
          "midi": 82,
          "name": "A#5",
          "ticks": 149504,
          "time": 91.25,
          "velocity": 0.7874015748031497
        },
        {
          "duration": 0.625,
          "durationTicks": 1024,
          "midi": 80,
          "name": "G#5",
          "ticks": 150528,
          "time": 91.875,
          "velocity": 0.7874015748031497
        },
        {
          "duration": 0.9375,
          "durationTicks": 1536,
          "midi": 82,
          "name": "A#5",
          "ticks": 151552,
          "time": 92.5,
          "velocity": 0.7874015748031497
        },
        {
          "duration": 0.3125,
          "durationTicks": 512,
          "midi": 75,
          "name": "D#5",
          "ticks": 153088,
          "time": 93.4375,
          "velocity": 0.7874015748031497
        },
        {
          "duration": 1.875,
          "durationTicks": 3072,
          "midi": 75,
          "name": "D#5",
          "ticks": 153600,
          "time": 93.75,
          "velocity": 0.7874015748031497
        },
        {
          "duration": 0.625,
          "durationTicks": 1024,
          "midi": 75,
          "name": "D#5",
          "ticks": 156672,
          "time": 95.625,
          "velocity": 0.7874015748031497
        },
        {
          "duration": 0.625,
          "durationTicks": 1024,
          "midi": 80,
          "name": "G#5",
          "ticks": 157696,
          "time": 96.25,
          "velocity": 0.7874015748031497
        },
        {
          "duration": 0.625,
          "durationTicks": 1024,
          "midi": 82,
          "name": "A#5",
          "ticks": 158720,
          "time": 96.875,
          "velocity": 0.7874015748031497
        },
        {
          "duration": 3.125,
          "durationTicks": 5120,
          "midi": 84,
          "name": "C6",
          "ticks": 159744,
          "time": 97.5,
          "velocity": 0.7874015748031497
        },
        {
          "duration": 0.625,
          "durationTicks": 1024,
          "midi": 84,
          "name": "C6",
          "ticks": 164864,
          "time": 100.625,
          "velocity": 0.7874015748031497
        },
        {
          "duration": 0.625,
          "durationTicks": 1024,
          "midi": 82,
          "name": "A#5",
          "ticks": 165888,
          "time": 101.25,
          "velocity": 0.7874015748031497
        },
        {
          "duration": 0.625,
          "durationTicks": 1024,
          "midi": 80,
          "name": "G#5",
          "ticks": 166912,
          "time": 101.875,
          "velocity": 0.7874015748031497
        },
        {
          "duration": 0.9375,
          "durationTicks": 1536,
          "midi": 82,
          "name": "A#5",
          "ticks": 167936,
          "time": 102.5,
          "velocity": 0.7874015748031497
        },
        {
          "duration": 0.3125,
          "durationTicks": 512,
          "midi": 75,
          "name": "D#5",
          "ticks": 169472,
          "time": 103.4375,
          "velocity": 0.7874015748031497
        },
        {
          "duration": 2.5,
          "durationTicks": 4096,
          "midi": 75,
          "name": "D#5",
          "ticks": 169984,
          "time": 103.75,
          "velocity": 0.7874015748031497
        },
        {
          "duration": 1.875,
          "durationTicks": 3072,
          "midi": 72,
          "name": "C5",
          "ticks": 180224,
          "time": 110,
          "velocity": 0.7874015748031497
        },
        {
          "duration": 0.625,
          "durationTicks": 1024,
          "midi": 70,
          "name": "A#4",
          "ticks": 183296,
          "time": 111.875,
          "velocity": 0.7874015748031497
        },
        {
          "duration": 1.875,
          "durationTicks": 3072,
          "midi": 70,
          "name": "A#4",
          "ticks": 184320,
          "time": 112.5,
          "velocity": 0.7874015748031497
        },
        {
          "duration": 0.625,
          "durationTicks": 1024,
          "midi": 68,
          "name": "G#4",
          "ticks": 187392,
          "time": 114.375,
          "velocity": 0.7874015748031497
        },
        {
          "duration": 2.5,
          "durationTicks": 4096,
          "midi": 67,
          "name": "G4",
          "ticks": 188416,
          "time": 115,
          "velocity": 0.7874015748031497
        },
        {
          "duration": 0.625,
          "durationTicks": 1024,
          "midi": 67,
          "name": "G4",
          "ticks": 192512,
          "time": 117.5,
          "velocity": 0.7874015748031497
        },
        {
          "duration": 0.625,
          "durationTicks": 1024,
          "midi": 74,
          "name": "D5",
          "ticks": 193536,
          "time": 118.125,
          "velocity": 0.7874015748031497
        },
        {
          "duration": 0.625,
          "durationTicks": 1024,
          "midi": 79,
          "name": "G5",
          "ticks": 194560,
          "time": 118.75,
          "velocity": 0.7874015748031497
        },
        {
          "duration": 0.625,
          "durationTicks": 1024,
          "midi": 67,
          "name": "G4",
          "ticks": 195584,
          "time": 119.375,
          "velocity": 0.7874015748031497
        },
        {
          "duration": 1.25,
          "durationTicks": 2048,
          "midi": 75,
          "name": "D#5",
          "ticks": 196608,
          "time": 120,
          "velocity": 0.7874015748031497
        },
        {
          "duration": 0.3125,
          "durationTicks": 512,
          "midi": 74,
          "name": "D5",
          "ticks": 198656,
          "time": 121.25,
          "velocity": 0.7874015748031497
        },
        {
          "duration": 0.3125,
          "durationTicks": 512,
          "midi": 72,
          "name": "C5",
          "ticks": 199168,
          "time": 121.5625,
          "velocity": 0.7874015748031497
        },
        {
          "duration": 0.3125,
          "durationTicks": 512,
          "midi": 70,
          "name": "A#4",
          "ticks": 199680,
          "time": 121.875,
          "velocity": 0.7874015748031497
        },
        {
          "duration": 0.3125,
          "durationTicks": 512,
          "midi": 69,
          "name": "A4",
          "ticks": 200192,
          "time": 122.1875,
          "velocity": 0.7874015748031497
        },
        {
          "duration": 0.9375,
          "durationTicks": 1536,
          "midi": 70,
          "name": "A#4",
          "ticks": 200704,
          "time": 122.5,
          "velocity": 0.7874015748031497
        },
        {
          "duration": 0.3125,
          "durationTicks": 512,
          "midi": 67,
          "name": "G4",
          "ticks": 202240,
          "time": 123.4375,
          "velocity": 0.7874015748031497
        },
        {
          "duration": 0.625,
          "durationTicks": 1024,
          "midi": 72,
          "name": "C5",
          "ticks": 202752,
          "time": 123.75,
          "velocity": 0.7874015748031497
        },
        {
          "duration": 0.625,
          "durationTicks": 1024,
          "midi": 67,
          "name": "G4",
          "ticks": 203776,
          "time": 124.375,
          "velocity": 0.7874015748031497
        },
        {
          "duration": 0.9375,
          "durationTicks": 1536,
          "midi": 67,
          "name": "G4",
          "ticks": 204800,
          "time": 125,
          "velocity": 0.7874015748031497
        },
        {
          "duration": 0.3125,
          "durationTicks": 512,
          "midi": 65,
          "name": "F4",
          "ticks": 206336,
          "time": 125.9375,
          "velocity": 0.7874015748031497
        },
        {
          "duration": 1.25,
          "durationTicks": 2048,
          "midi": 65,
          "name": "F4",
          "ticks": 206848,
          "time": 126.25,
          "velocity": 0.7874015748031497
        },
        {
          "duration": 0.9375,
          "durationTicks": 1536,
          "midi": 68,
          "name": "G#4",
          "ticks": 208896,
          "time": 127.5,
          "velocity": 0.7874015748031497
        },
        {
          "duration": 0.3125,
          "durationTicks": 512,
          "midi": 67,
          "name": "G4",
          "ticks": 210432,
          "time": 128.4375,
          "velocity": 0.7874015748031497
        },
        {
          "duration": 3.75,
          "durationTicks": 6144,
          "midi": 67,
          "name": "G4",
          "ticks": 210944,
          "time": 128.75,
          "velocity": 0.7874015748031497
        },
        {
          "duration": 1.875,
          "durationTicks": 3072,
          "midi": 62,
          "name": "D4",
          "ticks": 218112,
          "time": 133.125,
          "velocity": 0.7874015748031497
        },
        {
          "duration": 1.5625,
          "durationTicks": 2560,
          "midi": 70,
          "name": "A#4",
          "ticks": 218624,
          "time": 133.4375,
          "velocity": 0.7874015748031497
        },
        {
          "duration": 3.75,
          "durationTicks": 6144,
          "midi": 65,
          "name": "F4",
          "ticks": 219136,
          "time": 133.75,
          "velocity": 0.7874015748031497
        }
      ],
      "endOfTrackTicks": 225281
    },
    {
      "channel": 1,
      "controlChanges": {
        "0": [
          {
            "number": 0,
            "ticks": 0,
            "time": 0,
            "value": 0
          },
          {
            "number": 0,
            "ticks": 0,
            "time": 0,
            "value": 0
          }
        ],
        "32": [
          {
            "number": 32,
            "ticks": 0,
            "time": 0,
            "value": 0.007874015748031496
          },
          {
            "number": 32,
            "ticks": 0,
            "time": 0,
            "value": 0.007874015748031496
          }
        ]
      },
      "pitchBends": [],
      "instrument": {
        "family": "piano",
        "number": 0,
        "name": "acoustic grand piano"
      },
      "name": "Acoustic Grand Piano",
      "notes": [
        {
          "duration": 0.3125,
          "durationTicks": 512,
          "midi": 48,
          "name": "C3",
          "ticks": 4096,
          "time": 2.5,
          "velocity": 0.7874015748031497
        },
        {
          "duration": 0.3125,
          "durationTicks": 512,
          "midi": 51,
          "name": "D#3",
          "ticks": 4608,
          "time": 2.8125,
          "velocity": 0.7874015748031497
        },
        {
          "duration": 1.875,
          "durationTicks": 3072,
          "midi": 55,
          "name": "G3",
          "ticks": 5120,
          "time": 3.125,
          "velocity": 0.7874015748031497
        },
        {
          "duration": 1.875,
          "durationTicks": 3072,
          "midi": 60,
          "name": "C4",
          "ticks": 5120,
          "time": 3.125,
          "velocity": 0.7874015748031497
        },
        {
          "duration": 0.3125,
          "durationTicks": 512,
          "midi": 46,
          "name": "A#2",
          "ticks": 8192,
          "time": 5,
          "velocity": 0.7874015748031497
        },
        {
          "duration": 0.3125,
          "durationTicks": 512,
          "midi": 50,
          "name": "D3",
          "ticks": 8704,
          "time": 5.3125,
          "velocity": 0.7874015748031497
        },
        {
          "duration": 1.875,
          "durationTicks": 3072,
          "midi": 55,
          "name": "G3",
          "ticks": 9216,
          "time": 5.625,
          "velocity": 0.7874015748031497
        },
        {
          "duration": 1.875,
          "durationTicks": 3072,
          "midi": 58,
          "name": "A#3",
          "ticks": 9216,
          "time": 5.625,
          "velocity": 0.7874015748031497
        },
        {
          "duration": 0.3125,
          "durationTicks": 512,
          "midi": 44,
          "name": "G#2",
          "ticks": 12288,
          "time": 7.5,
          "velocity": 0.7874015748031497
        },
        {
          "duration": 0.3125,
          "durationTicks": 512,
          "midi": 48,
          "name": "C3",
          "ticks": 12800,
          "time": 7.8125,
          "velocity": 0.7874015748031497
        },
        {
          "duration": 0.625,
          "durationTicks": 1024,
          "midi": 51,
          "name": "D#3",
          "ticks": 13312,
          "time": 8.125,
          "velocity": 0.7874015748031497
        },
        {
          "duration": 0.625,
          "durationTicks": 1024,
          "midi": 55,
          "name": "G3",
          "ticks": 13312,
          "time": 8.125,
          "velocity": 0.7874015748031497
        },
        {
          "duration": 1.25,
          "durationTicks": 2048,
          "midi": 44,
          "name": "G#2",
          "ticks": 14336,
          "time": 8.75,
          "velocity": 0.7874015748031497
        },
        {
          "duration": 0.3125,
          "durationTicks": 512,
          "midi": 43,
          "name": "G2",
          "ticks": 16384,
          "time": 10,
          "velocity": 0.7874015748031497
        },
        {
          "duration": 0.3125,
          "durationTicks": 512,
          "midi": 46,
          "name": "A#2",
          "ticks": 16896,
          "time": 10.3125,
          "velocity": 0.7874015748031497
        },
        {
          "duration": 1.875,
          "durationTicks": 3072,
          "midi": 51,
          "name": "D#3",
          "ticks": 17408,
          "time": 10.625,
          "velocity": 0.7874015748031497
        },
        {
          "duration": 1.875,
          "durationTicks": 3072,
          "midi": 53,
          "name": "F3",
          "ticks": 17408,
          "time": 10.625,
          "velocity": 0.7874015748031497
        },
        {
          "duration": 0.3125,
          "durationTicks": 512,
          "midi": 41,
          "name": "F2",
          "ticks": 20480,
          "time": 12.5,
          "velocity": 0.7874015748031497
        },
        {
          "duration": 0.3125,
          "durationTicks": 512,
          "midi": 44,
          "name": "G#2",
          "ticks": 20992,
          "time": 12.8125,
          "velocity": 0.7874015748031497
        },
        {
          "duration": 1.875,
          "durationTicks": 3072,
          "midi": 48,
          "name": "C3",
          "ticks": 21504,
          "time": 13.125,
          "velocity": 0.7874015748031497
        },
        {
          "duration": 1.875,
          "durationTicks": 3072,
          "midi": 51,
          "name": "D#3",
          "ticks": 21504,
          "time": 13.125,
          "velocity": 0.7874015748031497
        },
        {
          "duration": 0.3125,
          "durationTicks": 512,
          "midi": 39,
          "name": "D#2",
          "ticks": 24576,
          "time": 15,
          "velocity": 0.7874015748031497
        },
        {
          "duration": 0.3125,
          "durationTicks": 512,
          "midi": 43,
          "name": "G2",
          "ticks": 25088,
          "time": 15.3125,
          "velocity": 0.7874015748031497
        },
        {
          "duration": 1.875,
          "durationTicks": 3072,
          "midi": 48,
          "name": "C3",
          "ticks": 25600,
          "time": 15.625,
          "velocity": 0.7874015748031497
        },
        {
          "duration": 1.875,
          "durationTicks": 3072,
          "midi": 51,
          "name": "D#3",
          "ticks": 25600,
          "time": 15.625,
          "velocity": 0.7874015748031497
        },
        {
          "duration": 0.3125,
          "durationTicks": 512,
          "midi": 38,
          "name": "D2",
          "ticks": 28672,
          "time": 17.5,
          "velocity": 0.7874015748031497
        },
        {
          "duration": 0.3125,
          "durationTicks": 512,
          "midi": 42,
          "name": "F#2",
          "ticks": 29184,
          "time": 17.8125,
          "velocity": 0.7874015748031497
        },
        {
          "duration": 1.875,
          "durationTicks": 3072,
          "midi": 45,
          "name": "A2",
          "ticks": 29696,
          "time": 18.125,
          "velocity": 0.7874015748031497
        },
        {
          "duration": 1.875,
          "durationTicks": 3072,
          "midi": 48,
          "name": "C3",
          "ticks": 29696,
          "time": 18.125,
          "velocity": 0.7874015748031497
        },
        {
          "duration": 0.3125,
          "durationTicks": 512,
          "midi": 43,
          "name": "G2",
          "ticks": 32768,
          "time": 20,
          "velocity": 0.7874015748031497
        },
        {
          "duration": 0.3125,
          "durationTicks": 512,
          "midi": 47,
          "name": "B2",
          "ticks": 33280,
          "time": 20.3125,
          "velocity": 0.7874015748031497
        },
        {
          "duration": 1.875,
          "durationTicks": 3072,
          "midi": 50,
          "name": "D3",
          "ticks": 33792,
          "time": 20.625,
          "velocity": 0.7874015748031497
        },
        {
          "duration": 1.875,
          "durationTicks": 3072,
          "midi": 55,
          "name": "G3",
          "ticks": 33792,
          "time": 20.625,
          "velocity": 0.7874015748031497
        },
        {
          "duration": 0.3125,
          "durationTicks": 512,
          "midi": 48,
          "name": "C3",
          "ticks": 36864,
          "time": 22.5,
          "velocity": 0.7874015748031497
        },
        {
          "duration": 0.3125,
          "durationTicks": 512,
          "midi": 51,
          "name": "D#3",
          "ticks": 37376,
          "time": 22.8125,
          "velocity": 0.7874015748031497
        },
        {
          "duration": 1.875,
          "durationTicks": 3072,
          "midi": 55,
          "name": "G3",
          "ticks": 37888,
          "time": 23.125,
          "velocity": 0.7874015748031497
        },
        {
          "duration": 1.875,
          "durationTicks": 3072,
          "midi": 60,
          "name": "C4",
          "ticks": 37888,
          "time": 23.125,
          "velocity": 0.7874015748031497
        },
        {
          "duration": 0.3125,
          "durationTicks": 512,
          "midi": 46,
          "name": "A#2",
          "ticks": 40960,
          "time": 25,
          "velocity": 0.7874015748031497
        },
        {
          "duration": 0.3125,
          "durationTicks": 512,
          "midi": 50,
          "name": "D3",
          "ticks": 41472,
          "time": 25.3125,
          "velocity": 0.7874015748031497
        },
        {
          "duration": 1.875,
          "durationTicks": 3072,
          "midi": 55,
          "name": "G3",
          "ticks": 41984,
          "time": 25.625,
          "velocity": 0.7874015748031497
        },
        {
          "duration": 1.875,
          "durationTicks": 3072,
          "midi": 58,
          "name": "A#3",
          "ticks": 41984,
          "time": 25.625,
          "velocity": 0.7874015748031497
        },
        {
          "duration": 0.3125,
          "durationTicks": 512,
          "midi": 44,
          "name": "G#2",
          "ticks": 45056,
          "time": 27.5,
          "velocity": 0.7874015748031497
        },
        {
          "duration": 0.3125,
          "durationTicks": 512,
          "midi": 48,
          "name": "C3",
          "ticks": 45568,
          "time": 27.8125,
          "velocity": 0.7874015748031497
        },
        {
          "duration": 0.625,
          "durationTicks": 1024,
          "midi": 51,
          "name": "D#3",
          "ticks": 46080,
          "time": 28.125,
          "velocity": 0.7874015748031497
        },
        {
          "duration": 0.625,
          "durationTicks": 1024,
          "midi": 55,
          "name": "G3",
          "ticks": 46080,
          "time": 28.125,
          "velocity": 0.7874015748031497
        },
        {
          "duration": 1.25,
          "durationTicks": 2048,
          "midi": 44,
          "name": "G#2",
          "ticks": 47104,
          "time": 28.75,
          "velocity": 0.7874015748031497
        },
        {
          "duration": 0.3125,
          "durationTicks": 512,
          "midi": 43,
          "name": "G2",
          "ticks": 49152,
          "time": 30,
          "velocity": 0.7874015748031497
        },
        {
          "duration": 0.3125,
          "durationTicks": 512,
          "midi": 46,
          "name": "A#2",
          "ticks": 49664,
          "time": 30.3125,
          "velocity": 0.7874015748031497
        },
        {
          "duration": 1.875,
          "durationTicks": 3072,
          "midi": 51,
          "name": "D#3",
          "ticks": 50176,
          "time": 30.625,
          "velocity": 0.7874015748031497
        },
        {
          "duration": 1.875,
          "durationTicks": 3072,
          "midi": 53,
          "name": "F3",
          "ticks": 50176,
          "time": 30.625,
          "velocity": 0.7874015748031497
        },
        {
          "duration": 0.3125,
          "durationTicks": 512,
          "midi": 41,
          "name": "F2",
          "ticks": 53248,
          "time": 32.5,
          "velocity": 0.7874015748031497
        },
        {
          "duration": 0.3125,
          "durationTicks": 512,
          "midi": 44,
          "name": "G#2",
          "ticks": 53760,
          "time": 32.8125,
          "velocity": 0.7874015748031497
        },
        {
          "duration": 1.875,
          "durationTicks": 3072,
          "midi": 48,
          "name": "C3",
          "ticks": 54272,
          "time": 33.125,
          "velocity": 0.7874015748031497
        },
        {
          "duration": 1.875,
          "durationTicks": 3072,
          "midi": 51,
          "name": "D#3",
          "ticks": 54272,
          "time": 33.125,
          "velocity": 0.7874015748031497
        },
        {
          "duration": 0.3125,
          "durationTicks": 512,
          "midi": 36,
          "name": "C2",
          "ticks": 57344,
          "time": 35,
          "velocity": 0.7874015748031497
        },
        {
          "duration": 0.3125,
          "durationTicks": 512,
          "midi": 43,
          "name": "G2",
          "ticks": 57856,
          "time": 35.3125,
          "velocity": 0.7874015748031497
        },
        {
          "duration": 1.875,
          "durationTicks": 3072,
          "midi": 48,
          "name": "C3",
          "ticks": 58368,
          "time": 35.625,
          "velocity": 0.7874015748031497
        },
        {
          "duration": 1.875,
          "durationTicks": 3072,
          "midi": 51,
          "name": "D#3",
          "ticks": 58368,
          "time": 35.625,
          "velocity": 0.7874015748031497
        },
        {
          "duration": 0.3125,
          "durationTicks": 512,
          "midi": 41,
          "name": "F2",
          "ticks": 61440,
          "time": 37.5,
          "velocity": 0.7874015748031497
        },
        {
          "duration": 0.3125,
          "durationTicks": 512,
          "midi": 44,
          "name": "G#2",
          "ticks": 61952,
          "time": 37.8125,
          "velocity": 0.7874015748031497
        },
        {
          "duration": 0.625,
          "durationTicks": 1024,
          "midi": 48,
          "name": "C3",
          "ticks": 62464,
          "time": 38.125,
          "velocity": 0.7874015748031497
        },
        {
          "duration": 0.625,
          "durationTicks": 1024,
          "midi": 51,
          "name": "D#3",
          "ticks": 62464,
          "time": 38.125,
          "velocity": 0.7874015748031497
        },
        {
          "duration": 0.3125,
          "durationTicks": 512,
          "midi": 43,
          "name": "G2",
          "ticks": 63488,
          "time": 38.75,
          "velocity": 0.7874015748031497
        },
        {
          "duration": 0.3125,
          "durationTicks": 512,
          "midi": 47,
          "name": "B2",
          "ticks": 64000,
          "time": 39.0625,
          "velocity": 0.7874015748031497
        },
        {
          "duration": 0.625,
          "durationTicks": 1024,
          "midi": 50,
          "name": "D3",
          "ticks": 64512,
          "time": 39.375,
          "velocity": 0.7874015748031497
        },
        {
          "duration": 0.625,
          "durationTicks": 1024,
          "midi": 55,
          "name": "G3",
          "ticks": 64512,
          "time": 39.375,
          "velocity": 0.7874015748031497
        },
        {
          "duration": 0.3125,
          "durationTicks": 512,
          "midi": 48,
          "name": "C3",
          "ticks": 65536,
          "time": 40,
          "velocity": 0.7874015748031497
        },
        {
          "duration": 0.3125,
          "durationTicks": 512,
          "midi": 51,
          "name": "D#3",
          "ticks": 66048,
          "time": 40.3125,
          "velocity": 0.7874015748031497
        },
        {
          "duration": 1.875,
          "durationTicks": 3072,
          "midi": 55,
          "name": "G3",
          "ticks": 66560,
          "time": 40.625,
          "velocity": 0.7874015748031497
        },
        {
          "duration": 1.875,
          "durationTicks": 3072,
          "midi": 60,
          "name": "C4",
          "ticks": 66560,
          "time": 40.625,
          "velocity": 0.7874015748031497
        },
        {
          "duration": 0.3125,
          "durationTicks": 512,
          "midi": 51,
          "name": "D#3",
          "ticks": 69632,
          "time": 42.5,
          "velocity": 0.7874015748031497
        },
        {
          "duration": 0.3125,
          "durationTicks": 512,
          "midi": 55,
          "name": "G3",
          "ticks": 70144,
          "time": 42.8125,
          "velocity": 0.7874015748031497
        },
        {
          "duration": 1.875,
          "durationTicks": 3072,
          "midi": 58,
          "name": "A#3",
          "ticks": 70656,
          "time": 43.125,
          "velocity": 0.7874015748031497
        },
        {
          "duration": 1.875,
          "durationTicks": 3072,
          "midi": 63,
          "name": "D#4",
          "ticks": 70656,
          "time": 43.125,
          "velocity": 0.7874015748031497
        },
        {
          "duration": 0.3125,
          "durationTicks": 512,
          "midi": 50,
          "name": "D3",
          "ticks": 73728,
          "time": 45,
          "velocity": 0.7874015748031497
        },
        {
          "duration": 0.3125,
          "durationTicks": 512,
          "midi": 53,
          "name": "F3",
          "ticks": 74240,
          "time": 45.3125,
          "velocity": 0.7874015748031497
        },
        {
          "duration": 1.875,
          "durationTicks": 3072,
          "midi": 58,
          "name": "A#3",
          "ticks": 74752,
          "time": 45.625,
          "velocity": 0.7874015748031497
        },
        {
          "duration": 1.875,
          "durationTicks": 3072,
          "midi": 62,
          "name": "D4",
          "ticks": 74752,
          "time": 45.625,
          "velocity": 0.7874015748031497
        },
        {
          "duration": 0.3125,
          "durationTicks": 512,
          "midi": 48,
          "name": "C3",
          "ticks": 77824,
          "time": 47.5,
          "velocity": 0.7874015748031497
        },
        {
          "duration": 0.3125,
          "durationTicks": 512,
          "midi": 51,
          "name": "D#3",
          "ticks": 78336,
          "time": 47.8125,
          "velocity": 0.7874015748031497
        },
        {
          "duration": 1.875,
          "durationTicks": 3072,
          "midi": 55,
          "name": "G3",
          "ticks": 78848,
          "time": 48.125,
          "velocity": 0.7874015748031497
        },
        {
          "duration": 1.875,
          "durationTicks": 3072,
          "midi": 60,
          "name": "C4",
          "ticks": 78848,
          "time": 48.125,
          "velocity": 0.7874015748031497
        },
        {
          "duration": 0.3125,
          "durationTicks": 512,
          "midi": 46,
          "name": "A#2",
          "ticks": 81920,
          "time": 50,
          "velocity": 0.7874015748031497
        },
        {
          "duration": 0.3125,
          "durationTicks": 512,
          "midi": 50,
          "name": "D3",
          "ticks": 82432,
          "time": 50.3125,
          "velocity": 0.7874015748031497
        },
        {
          "duration": 1.875,
          "durationTicks": 3072,
          "midi": 55,
          "name": "G3",
          "ticks": 82944,
          "time": 50.625,
          "velocity": 0.7874015748031497
        },
        {
          "duration": 1.875,
          "durationTicks": 3072,
          "midi": 58,
          "name": "A#3",
          "ticks": 82944,
          "time": 50.625,
          "velocity": 0.7874015748031497
        },
        {
          "duration": 0.3125,
          "durationTicks": 512,
          "midi": 44,
          "name": "G#2",
          "ticks": 86016,
          "time": 52.5,
          "velocity": 0.7874015748031497
        },
        {
          "duration": 0.3125,
          "durationTicks": 512,
          "midi": 48,
          "name": "C3",
          "ticks": 86528,
          "time": 52.8125,
          "velocity": 0.7874015748031497
        },
        {
          "duration": 0.625,
          "durationTicks": 1024,
          "midi": 51,
          "name": "D#3",
          "ticks": 87040,
          "time": 53.125,
          "velocity": 0.7874015748031497
        },
        {
          "duration": 0.625,
          "durationTicks": 1024,
          "midi": 56,
          "name": "G#3",
          "ticks": 87040,
          "time": 53.125,
          "velocity": 0.7874015748031497
        },
        {
          "duration": 0.3125,
          "durationTicks": 512,
          "midi": 44,
          "name": "G#2",
          "ticks": 88064,
          "time": 53.75,
          "velocity": 0.7874015748031497
        },
        {
          "duration": 0.3125,
          "durationTicks": 512,
          "midi": 46,
          "name": "A#2",
          "ticks": 88576,
          "time": 54.0625,
          "velocity": 0.7874015748031497
        },
        {
          "duration": 0.625,
          "durationTicks": 1024,
          "midi": 50,
          "name": "D3",
          "ticks": 89088,
          "time": 54.375,
          "velocity": 0.7874015748031497
        },
        {
          "duration": 0.625,
          "durationTicks": 1024,
          "midi": 53,
          "name": "F3",
          "ticks": 89088,
          "time": 54.375,
          "velocity": 0.7874015748031497
        },
        {
          "duration": 0.3125,
          "durationTicks": 512,
          "midi": 43,
          "name": "G2",
          "ticks": 90112,
          "time": 55,
          "velocity": 0.7874015748031497
        },
        {
          "duration": 0.3125,
          "durationTicks": 512,
          "midi": 46,
          "name": "A#2",
          "ticks": 90624,
          "time": 55.3125,
          "velocity": 0.7874015748031497
        },
        {
          "duration": 1.875,
          "durationTicks": 3072,
          "midi": 51,
          "name": "D#3",
          "ticks": 91136,
          "time": 55.625,
          "velocity": 0.7874015748031497
        },
        {
          "duration": 1.875,
          "durationTicks": 3072,
          "midi": 55,
          "name": "G3",
          "ticks": 91136,
          "time": 55.625,
          "velocity": 0.7874015748031497
        },
        {
          "duration": 0.3125,
          "durationTicks": 512,
          "midi": 41,
          "name": "F2",
          "ticks": 94208,
          "time": 57.5,
          "velocity": 0.7874015748031497
        },
        {
          "duration": 0.3125,
          "durationTicks": 512,
          "midi": 44,
          "name": "G#2",
          "ticks": 94720,
          "time": 57.8125,
          "velocity": 0.7874015748031497
        },
        {
          "duration": 1.875,
          "durationTicks": 3072,
          "midi": 48,
          "name": "C3",
          "ticks": 95232,
          "time": 58.125,
          "velocity": 0.7874015748031497
        },
        {
          "duration": 1.875,
          "durationTicks": 3072,
          "midi": 51,
          "name": "D#3",
          "ticks": 95232,
          "time": 58.125,
          "velocity": 0.7874015748031497
        },
        {
          "duration": 0.3125,
          "durationTicks": 512,
          "midi": 46,
          "name": "A#2",
          "ticks": 98304,
          "time": 60,
          "velocity": 0.7874015748031497
        },
        {
          "duration": 0.3125,
          "durationTicks": 512,
          "midi": 50,
          "name": "D3",
          "ticks": 98816,
          "time": 60.3125,
          "velocity": 0.7874015748031497
        },
        {
          "duration": 1.875,
          "durationTicks": 3072,
          "midi": 53,
          "name": "F3",
          "ticks": 99328,
          "time": 60.625,
          "velocity": 0.7874015748031497
        },
        {
          "duration": 1.875,
          "durationTicks": 3072,
          "midi": 56,
          "name": "G#3",
          "ticks": 99328,
          "time": 60.625,
          "velocity": 0.7874015748031497
        },
        {
          "duration": 0.3125,
          "durationTicks": 512,
          "midi": 47,
          "name": "B2",
          "ticks": 102400,
          "time": 62.5,
          "velocity": 0.7874015748031497
        },
        {
          "duration": 0.3125,
          "durationTicks": 512,
          "midi": 50,
          "name": "D3",
          "ticks": 102912,
          "time": 62.8125,
          "velocity": 0.7874015748031497
        },
        {
          "duration": 1.875,
          "durationTicks": 3072,
          "midi": 55,
          "name": "G3",
          "ticks": 103424,
          "time": 63.125,
          "velocity": 0.7874015748031497
        },
        {
          "duration": 1.875,
          "durationTicks": 3072,
          "midi": 59,
          "name": "B3",
          "ticks": 103424,
          "time": 63.125,
          "velocity": 0.7874015748031497
        },
        {
          "duration": 0.3125,
          "durationTicks": 512,
          "midi": 43,
          "name": "G2",
          "ticks": 106496,
          "time": 65,
          "velocity": 0.7874015748031497
        },
        {
          "duration": 0.3125,
          "durationTicks": 512,
          "midi": 47,
          "name": "B2",
          "ticks": 107008,
          "time": 65.3125,
          "velocity": 0.7874015748031497
        },
        {
          "duration": 1.875,
          "durationTicks": 3072,
          "midi": 50,
          "name": "D3",
          "ticks": 107520,
          "time": 65.625,
          "velocity": 0.7874015748031497
        },
        {
          "duration": 1.875,
          "durationTicks": 3072,
          "midi": 55,
          "name": "G3",
          "ticks": 107520,
          "time": 65.625,
          "velocity": 0.7874015748031497
        },
        {
          "duration": 0.3125,
          "durationTicks": 512,
          "midi": 48,
          "name": "C3",
          "ticks": 110592,
          "time": 67.5,
          "velocity": 0.7874015748031497
        },
        {
          "duration": 0.3125,
          "durationTicks": 512,
          "midi": 51,
          "name": "D#3",
          "ticks": 111104,
          "time": 67.8125,
          "velocity": 0.7874015748031497
        },
        {
          "duration": 1.875,
          "durationTicks": 3072,
          "midi": 55,
          "name": "G3",
          "ticks": 111616,
          "time": 68.125,
          "velocity": 0.7874015748031497
        },
        {
          "duration": 1.875,
          "durationTicks": 3072,
          "midi": 60,
          "name": "C4",
          "ticks": 111616,
          "time": 68.125,
          "velocity": 0.7874015748031497
        },
        {
          "duration": 0.3125,
          "durationTicks": 512,
          "midi": 46,
          "name": "A#2",
          "ticks": 114688,
          "time": 70,
          "velocity": 0.7874015748031497
        },
        {
          "duration": 0.3125,
          "durationTicks": 512,
          "midi": 50,
          "name": "D3",
          "ticks": 115200,
          "time": 70.3125,
          "velocity": 0.7874015748031497
        },
        {
          "duration": 1.875,
          "durationTicks": 3072,
          "midi": 55,
          "name": "G3",
          "ticks": 115712,
          "time": 70.625,
          "velocity": 0.7874015748031497
        },
        {
          "duration": 1.875,
          "durationTicks": 3072,
          "midi": 58,
          "name": "A#3",
          "ticks": 115712,
          "time": 70.625,
          "velocity": 0.7874015748031497
        },
        {
          "duration": 0.3125,
          "durationTicks": 512,
          "midi": 44,
          "name": "G#2",
          "ticks": 118784,
          "time": 72.5,
          "velocity": 0.7874015748031497
        },
        {
          "duration": 0.3125,
          "durationTicks": 512,
          "midi": 48,
          "name": "C3",
          "ticks": 119296,
          "time": 72.8125,
          "velocity": 0.7874015748031497
        },
        {
          "duration": 0.625,
          "durationTicks": 1024,
          "midi": 51,
          "name": "D#3",
          "ticks": 119808,
          "time": 73.125,
          "velocity": 0.7874015748031497
        },
        {
          "duration": 0.625,
          "durationTicks": 1024,
          "midi": 55,
          "name": "G3",
          "ticks": 119808,
          "time": 73.125,
          "velocity": 0.7874015748031497
        },
        {
          "duration": 1.25,
          "durationTicks": 2048,
          "midi": 44,
          "name": "G#2",
          "ticks": 120832,
          "time": 73.75,
          "velocity": 0.7874015748031497
        },
        {
          "duration": 0.3125,
          "durationTicks": 512,
          "midi": 43,
          "name": "G2",
          "ticks": 122880,
          "time": 75,
          "velocity": 0.7874015748031497
        },
        {
          "duration": 0.3125,
          "durationTicks": 512,
          "midi": 46,
          "name": "A#2",
          "ticks": 123392,
          "time": 75.3125,
          "velocity": 0.7874015748031497
        },
        {
          "duration": 1.875,
          "durationTicks": 3072,
          "midi": 51,
          "name": "D#3",
          "ticks": 123904,
          "time": 75.625,
          "velocity": 0.7874015748031497
        },
        {
          "duration": 1.875,
          "durationTicks": 3072,
          "midi": 53,
          "name": "F3",
          "ticks": 123904,
          "time": 75.625,
          "velocity": 0.7874015748031497
        },
        {
          "duration": 0.3125,
          "durationTicks": 512,
          "midi": 41,
          "name": "F2",
          "ticks": 126976,
          "time": 77.5,
          "velocity": 0.7874015748031497
        },
        {
          "duration": 0.3125,
          "durationTicks": 512,
          "midi": 44,
          "name": "G#2",
          "ticks": 127488,
          "time": 77.8125,
          "velocity": 0.7874015748031497
        },
        {
          "duration": 1.875,
          "durationTicks": 3072,
          "midi": 48,
          "name": "C3",
          "ticks": 128000,
          "time": 78.125,
          "velocity": 0.7874015748031497
        },
        {
          "duration": 1.875,
          "durationTicks": 3072,
          "midi": 51,
          "name": "D#3",
          "ticks": 128000,
          "time": 78.125,
          "velocity": 0.7874015748031497
        },
        {
          "duration": 0.3125,
          "durationTicks": 512,
          "midi": 36,
          "name": "C2",
          "ticks": 131072,
          "time": 80,
          "velocity": 0.7874015748031497
        },
        {
          "duration": 0.3125,
          "durationTicks": 512,
          "midi": 43,
          "name": "G2",
          "ticks": 131584,
          "time": 80.3125,
          "velocity": 0.7874015748031497
        },
        {
          "duration": 1.875,
          "durationTicks": 3072,
          "midi": 48,
          "name": "C3",
          "ticks": 132096,
          "time": 80.625,
          "velocity": 0.7874015748031497
        },
        {
          "duration": 1.875,
          "durationTicks": 3072,
          "midi": 51,
          "name": "D#3",
          "ticks": 132096,
          "time": 80.625,
          "velocity": 0.7874015748031497
        },
        {
          "duration": 0.3125,
          "durationTicks": 512,
          "midi": 41,
          "name": "F2",
          "ticks": 135168,
          "time": 82.5,
          "velocity": 0.7874015748031497
        },
        {
          "duration": 0.3125,
          "durationTicks": 512,
          "midi": 44,
          "name": "G#2",
          "ticks": 135680,
          "time": 82.8125,
          "velocity": 0.7874015748031497
        },
        {
          "duration": 0.625,
          "durationTicks": 1024,
          "midi": 48,
          "name": "C3",
          "ticks": 136192,
          "time": 83.125,
          "velocity": 0.7874015748031497
        },
        {
          "duration": 0.625,
          "durationTicks": 1024,
          "midi": 51,
          "name": "D#3",
          "ticks": 136192,
          "time": 83.125,
          "velocity": 0.7874015748031497
        },
        {
          "duration": 0.3125,
          "durationTicks": 512,
          "midi": 43,
          "name": "G2",
          "ticks": 137216,
          "time": 83.75,
          "velocity": 0.7874015748031497
        },
        {
          "duration": 0.3125,
          "durationTicks": 512,
          "midi": 47,
          "name": "B2",
          "ticks": 137728,
          "time": 84.0625,
          "velocity": 0.7874015748031497
        },
        {
          "duration": 0.625,
          "durationTicks": 1024,
          "midi": 50,
          "name": "D3",
          "ticks": 138240,
          "time": 84.375,
          "velocity": 0.7874015748031497
        },
        {
          "duration": 0.625,
          "durationTicks": 1024,
          "midi": 55,
          "name": "G3",
          "ticks": 138240,
          "time": 84.375,
          "velocity": 0.7874015748031497
        },
        {
          "duration": 0.3125,
          "durationTicks": 512,
          "midi": 48,
          "name": "C3",
          "ticks": 139264,
          "time": 85,
          "velocity": 0.7874015748031497
        },
        {
          "duration": 0.3125,
          "durationTicks": 512,
          "midi": 52,
          "name": "E3",
          "ticks": 139776,
          "time": 85.3125,
          "velocity": 0.7874015748031497
        },
        {
          "duration": 1.875,
          "durationTicks": 3072,
          "midi": 55,
          "name": "G3",
          "ticks": 140288,
          "time": 85.625,
          "velocity": 0.7874015748031497
        },
        {
          "duration": 1.875,
          "durationTicks": 3072,
          "midi": 60,
          "name": "C4",
          "ticks": 140288,
          "time": 85.625,
          "velocity": 0.7874015748031497
        },
        {
          "duration": 5,
          "durationTicks": 8192,
          "midi": 61,
          "name": "C#4",
          "ticks": 143360,
          "time": 87.5,
          "velocity": 0.7874015748031497
        },
        {
          "duration": 5,
          "durationTicks": 8192,
          "midi": 65,
          "name": "F4",
          "ticks": 143360,
          "time": 87.5,
          "velocity": 0.7874015748031497
        },
        {
          "duration": 5,
          "durationTicks": 8192,
          "midi": 68,
          "name": "G#4",
          "ticks": 143360,
          "time": 87.5,
          "velocity": 0.7874015748031497
        },
        {
          "duration": 5,
          "durationTicks": 8192,
          "midi": 60,
          "name": "C4",
          "ticks": 151552,
          "time": 92.5,
          "velocity": 0.7874015748031497
        },
        {
          "duration": 5,
          "durationTicks": 8192,
          "midi": 63,
          "name": "D#4",
          "ticks": 151552,
          "time": 92.5,
          "velocity": 0.7874015748031497
        },
        {
          "duration": 5,
          "durationTicks": 8192,
          "midi": 68,
          "name": "G#4",
          "ticks": 151552,
          "time": 92.5,
          "velocity": 0.7874015748031497
        },
        {
          "duration": 5,
          "durationTicks": 8192,
          "midi": 61,
          "name": "C#4",
          "ticks": 159744,
          "time": 97.5,
          "velocity": 0.7874015748031497
        },
        {
          "duration": 5,
          "durationTicks": 8192,
          "midi": 65,
          "name": "F4",
          "ticks": 159744,
          "time": 97.5,
          "velocity": 0.7874015748031497
        },
        {
          "duration": 5,
          "durationTicks": 8192,
          "midi": 68,
          "name": "G#4",
          "ticks": 159744,
          "time": 97.5,
          "velocity": 0.7874015748031497
        },
        {
          "duration": 3.75,
          "durationTicks": 6144,
          "midi": 60,
          "name": "C4",
          "ticks": 167936,
          "time": 102.5,
          "velocity": 0.7874015748031497
        },
        {
          "duration": 3.75,
          "durationTicks": 6144,
          "midi": 63,
          "name": "D#4",
          "ticks": 167936,
          "time": 102.5,
          "velocity": 0.7874015748031497
        },
        {
          "duration": 3.75,
          "durationTicks": 6144,
          "midi": 68,
          "name": "G#4",
          "ticks": 167936,
          "time": 102.5,
          "velocity": 0.7874015748031497
        },
        {
          "duration": 0.3125,
          "durationTicks": 512,
          "midi": 51,
          "name": "D#3",
          "ticks": 174592,
          "time": 106.5625,
          "velocity": 0.7874015748031497
        },
        {
          "duration": 0.3125,
          "durationTicks": 512,
          "midi": 53,
          "name": "F3",
          "ticks": 175104,
          "time": 106.875,
          "velocity": 0.7874015748031497
        },
        {
          "duration": 0.3125,
          "durationTicks": 512,
          "midi": 55,
          "name": "G3",
          "ticks": 175616,
          "time": 107.1875,
          "velocity": 0.7874015748031497
        },
        {
          "duration": 1.875,
          "durationTicks": 3072,
          "midi": 55,
          "name": "G3",
          "ticks": 176128,
          "time": 107.5,
          "velocity": 0.7874015748031497
        },
        {
          "duration": 0.625,
          "durationTicks": 1024,
          "midi": 53,
          "name": "F3",
          "ticks": 179200,
          "time": 109.375,
          "velocity": 0.7874015748031497
        },
        {
          "duration": 2.5,
          "durationTicks": 4096,
          "midi": 61,
          "name": "C#4",
          "ticks": 180224,
          "time": 110,
          "velocity": 0.7874015748031497
        },
        {
          "duration": 2.5,
          "durationTicks": 4096,
          "midi": 65,
          "name": "F4",
          "ticks": 180224,
          "time": 110,
          "velocity": 0.7874015748031497
        },
        {
          "duration": 2.5,
          "durationTicks": 4096,
          "midi": 60,
          "name": "C4",
          "ticks": 184320,
          "time": 112.5,
          "velocity": 0.7874015748031497
        },
        {
          "duration": 2.5,
          "durationTicks": 4096,
          "midi": 63,
          "name": "D#4",
          "ticks": 184320,
          "time": 112.5,
          "velocity": 0.7874015748031497
        },
        {
          "duration": 5,
          "durationTicks": 8192,
          "midi": 59,
          "name": "B3",
          "ticks": 188416,
          "time": 115,
          "velocity": 0.7874015748031497
        },
        {
          "duration": 5,
          "durationTicks": 8192,
          "midi": 62,
          "name": "D4",
          "ticks": 188416,
          "time": 115,
          "velocity": 0.7874015748031497
        },
        {
          "duration": 1.25,
          "durationTicks": 2048,
          "midi": 48,
          "name": "C3",
          "ticks": 196608,
          "time": 120,
          "velocity": 0.7874015748031497
        },
        {
          "duration": 1.25,
          "durationTicks": 2048,
          "midi": 51,
          "name": "D#3",
          "ticks": 196608,
          "time": 120,
          "velocity": 0.7874015748031497
        },
        {
          "duration": 1.25,
          "durationTicks": 2048,
          "midi": 55,
          "name": "G3",
          "ticks": 196608,
          "time": 120,
          "velocity": 0.7874015748031497
        },
        {
          "duration": 1.25,
          "durationTicks": 2048,
          "midi": 50,
          "name": "D3",
          "ticks": 198656,
          "time": 121.25,
          "velocity": 0.7874015748031497
        },
        {
          "duration": 1.25,
          "durationTicks": 2048,
          "midi": 54,
          "name": "F#3",
          "ticks": 198656,
          "time": 121.25,
          "velocity": 0.7874015748031497
        },
        {
          "duration": 1.25,
          "durationTicks": 2048,
          "midi": 60,
          "name": "C4",
          "ticks": 198656,
          "time": 121.25,
          "velocity": 0.7874015748031497
        },
        {
          "duration": 1.25,
          "durationTicks": 2048,
          "midi": 55,
          "name": "G3",
          "ticks": 200704,
          "time": 122.5,
          "velocity": 0.7874015748031497
        },
        {
          "duration": 1.25,
          "durationTicks": 2048,
          "midi": 58,
          "name": "A#3",
          "ticks": 200704,
          "time": 122.5,
          "velocity": 0.7874015748031497
        },
        {
          "duration": 1.25,
          "durationTicks": 2048,
          "midi": 62,
          "name": "D4",
          "ticks": 200704,
          "time": 122.5,
          "velocity": 0.7874015748031497
        },
        {
          "duration": 1.25,
          "durationTicks": 2048,
          "midi": 56,
          "name": "G#3",
          "ticks": 202752,
          "time": 123.75,
          "velocity": 0.7874015748031497
        },
        {
          "duration": 1.25,
          "durationTicks": 2048,
          "midi": 60,
          "name": "C4",
          "ticks": 202752,
          "time": 123.75,
          "velocity": 0.7874015748031497
        },
        {
          "duration": 1.25,
          "durationTicks": 2048,
          "midi": 63,
          "name": "D#4",
          "ticks": 202752,
          "time": 123.75,
          "velocity": 0.7874015748031497
        },
        {
          "duration": 2.5,
          "durationTicks": 4096,
          "midi": 57,
          "name": "A3",
          "ticks": 204800,
          "time": 125,
          "velocity": 0.7874015748031497
        },
        {
          "duration": 2.5,
          "durationTicks": 4096,
          "midi": 60,
          "name": "C4",
          "ticks": 204800,
          "time": 125,
          "velocity": 0.7874015748031497
        },
        {
          "duration": 2.5,
          "durationTicks": 4096,
          "midi": 63,
          "name": "D#4",
          "ticks": 204800,
          "time": 125,
          "velocity": 0.7874015748031497
        },
        {
          "duration": 2.5,
          "durationTicks": 4096,
          "midi": 58,
          "name": "A#3",
          "ticks": 208896,
          "time": 127.5,
          "velocity": 0.7874015748031497
        },
        {
          "duration": 2.5,
          "durationTicks": 4096,
          "midi": 62,
          "name": "D4",
          "ticks": 208896,
          "time": 127.5,
          "velocity": 0.7874015748031497
        },
        {
          "duration": 2.5,
          "durationTicks": 4096,
          "midi": 65,
          "name": "F4",
          "ticks": 208896,
          "time": 127.5,
          "velocity": 0.7874015748031497
        },
        {
          "duration": 2.5,
          "durationTicks": 4096,
          "midi": 59,
          "name": "B3",
          "ticks": 212992,
          "time": 130,
          "velocity": 0.7874015748031497
        },
        {
          "duration": 2.5,
          "durationTicks": 4096,
          "midi": 62,
          "name": "D4",
          "ticks": 212992,
          "time": 130,
          "velocity": 0.7874015748031497
        },
        {
          "duration": 2.5,
          "durationTicks": 4096,
          "midi": 65,
          "name": "F4",
          "ticks": 212992,
          "time": 130,
          "velocity": 0.7874015748031497
        },
        {
          "duration": 2.5,
          "durationTicks": 4096,
          "midi": 48,
          "name": "C3",
          "ticks": 217088,
          "time": 132.5,
          "velocity": 0.7874015748031497
        },
        {
          "duration": 4.6875,
          "durationTicks": 7680,
          "midi": 55,
          "name": "G3",
          "ticks": 217600,
          "time": 132.8125,
          "velocity": 0.7874015748031497
        }
      ],
      "endOfTrackTicks": 225281
    }
  ]
}